<svg width="28" height="31" viewBox="0 0 28 31" fill="none" xmlns="http://www.w3.org/2000/svg">
<path d="M27.5767 13.1461L15.0419 0.439832C14.4558 -0.146611 13.5442 -0.146611 12.9581 0.439832L0.423256 13.1461C0.162791 13.4067 0 13.7977 0 14.1887V29.5339C0 30.3484 0.651163 31 1.46512 31H8.82326C9.27907 31 9.63721 30.6416 9.63721 30.1855V26.4062C9.63721 23.9953 11.5907 22.0405 14 22.0405C16.4093 22.0405 18.3628 23.9953 18.3628 26.4062V30.1855C18.3628 30.6416 18.7209 31 19.1767 31H26.5349C27.3488 31 28 30.3484 28 29.5339V14.1887C28 13.7977 27.8698 13.4393 27.5767 13.1461Z" fill="#333333"/>
</svg>
