<svg width="31" height="31" viewBox="0 0 31 31" fill="none" xmlns="http://www.w3.org/2000/svg">
<path d="M26.1297 3.95734C31.2938 9.23379 31.2938 17.7659 26.1297 23.0424C21.19 27.8698 13.4437 28.2066 8.16727 23.9405L2.44176 29.666C1.88044 30.2273 0.982318 30.2273 0.420993 29.666C-0.140331 29.1047 -0.140331 28.2066 0.420993 27.6452L6.1465 21.9197C1.88044 16.6433 2.10497 8.89699 7.04462 3.95734C12.3211 -1.31911 20.8532 -1.31911 26.1297 3.95734ZM24.1089 5.97811C19.9551 1.8243 13.2192 1.8243 9.06539 5.97811C4.91159 10.1319 4.91159 16.8678 9.06539 21.0216C13.2192 25.1754 19.9551 25.1754 24.1089 21.0216C28.2627 16.8678 28.2627 10.1319 24.1089 5.97811Z" fill="#4F76DF"/>
</svg>
