<svg width="27" height="27" viewBox="0 0 27 27" fill="none" xmlns="http://www.w3.org/2000/svg">
<path d="M23.4487 3.55131C28.083 8.28638 28.083 15.9431 23.4487 20.6782C19.0159 25.0103 12.0644 25.3125 7.32929 21.4841L2.19123 26.6222C1.6875 27.1259 0.88153 27.1259 0.377798 26.6222C-0.125933 26.1185 -0.125933 25.3125 0.377798 24.8088L5.51586 19.6707C1.6875 14.9356 1.88899 7.98414 6.32183 3.55131C11.0569 -1.18377 18.7136 -1.18377 23.4487 3.55131ZM21.6353 5.36474C17.9076 1.63713 11.8629 1.63713 8.13526 5.36474C4.40765 9.09235 4.40765 15.1371 8.13526 18.8647C11.8629 22.5924 17.9076 22.5924 21.6353 18.8647C25.3629 15.1371 25.3629 9.09235 21.6353 5.36474Z" fill="#4F76DF"/>
</svg>
